# AST/ASF file generated using VICON BodyLanguage
# -----------------------------------------------
:version 1.10
:name VICON
:units
  mass 1.0
  length 0.45
  angle deg
:documentation
   .ast/.asf automatically generated from VICON data using
   VICON BodyBuilder and BodyLanguage model FoxedUp or BRILLIANT.MOD
:root
   order TX TY TZ RX RY RZ
   axis XYZ
   position 0 0 0  
   orientation 0 0 0 
:bonedata
  begin
     id 1 
     name lhipjoint
     direction 0.677091 -0.635792 0.370561 
     length 2.74323 
     axis 0 0 0  XYZ
  end
  begin
     id 2 
     name lfemur
     direction 0.34202 -0.939693 0  
     length 7.44995  
     axis 0 0 20  XYZ
    dof rx ry rz
    limits (-160.0 20.0)
           (-70.0 70.0)
           (-60.0 70.0)
  end
  begin
     id 3 
     name ltibia
     direction 0.34202 -0.939693 0   
     length 7.34467   
     axis 0 0 20   XYZ
    dof rx
    limits (-10.0 170.0)
  end
  begin
     id 4 
     name lfoot
     direction 0.101953 -0.280114 0.954537   
     length 1.72105   
     axis -90 7.62852e-016 20   XYZ
    dof rx rz
    limits (-45.0 90.0)
           (-70.0 20.0)
  end
  begin
     id 5 
     name ltoes
     direction 1.53537e-011 -4.21915e-011 1   
     length 0.865872   
     axis -90 7.62852e-016 20   XYZ
    dof rx
    limits (-90.0 20.0)
  end
  begin
     id 6 
     name rhipjoint
     direction -0.695735 -0.620586 0.361699   
     length 2.81045  
     axis 0 0 0  XYZ 
  end
  begin
     id 7 
     name rfemur
     direction -0.34202 -0.939693 0   
     length 7.29387   
     axis 0 0 -20   XYZ
    dof rx ry rz
    limits (-160.0 20.0)
           (-70.0 70.0)
           (-70.0 60.0)
  end
  begin
     id 8 
     name rtibia
     direction -0.34202 -0.939693 0   
     length 7.44935   
     axis 0 0 -20   XYZ
    dof rx
    limits (-10.0 170.0)
 end
 begin
     id 9 
     name rfoot
     direction -0.104163 -0.286184 0.952496   
     length 1.77731  
     axis -90 -7.62852e-016 -20   XYZ
    dof rx rz
    limits (-45.0 90.0)
           (-20.0 70.0)
  end
  begin
     id 10 
     name rtoes
     direction -1.5355e-011 -4.21888e-011 1   
     length 0.892424   
     axis -90 -7.62852e-016 -20   XYZ
    dof rx
    limits (-90.0 20.0)
  end
  begin
     id 11 
     name lowerback
     direction 0.0100202 0.997226 -0.0737589   
     length 2.16892   
     axis 0 0 0   XYZ
    dof rx ry rz
    limits (-20.0 45.0)
           (-30.0 30.0)
           (-30.0 30.0)
  end
  begin
     id 12 
     name upperback
     direction 0.00432398 0.999988 -0.00215019   
     length 2.17326   
     axis 0 0 0   XYZ
    dof rx ry rz
    limits (-20.0 45.0)
           (-30.0 30.0)
           (-30.0 30.0)
  end
  begin
     id 13 
     name thorax
     direction -0.00195047 0.999485 0.0320434   
     length 2.18139   
     axis 0 0 0   XYZ
    dof rx ry rz
    limits (-20.0 45.0)
           (-30.0 30.0)
           (-30.0 30.0)
  end
  begin
     id 14 
     name lowerneck
     direction 0.00782762 0.986241 0.165128   
     length 1.88415   
     axis 0 0 0   XYZ
    dof rx ry rz
    limits (-20.0 45.0)
           (-30.0 30.0)
           (-30.0 30.0)
  end
  begin
     id 15 
     name upperneck
     direction 0.00988667 0.981098 -0.193258   
     length 1.9242   
     axis 0 0 0   XYZ
    dof rx ry rz
    limits (-20.0 45.0)
           (-30.0 30.0)
           (-30.0 30.0)
  end
  begin
     id 16
     name head
     direction 0.00252199 0.996513 -0.0833958  
     length 1.93887  
     axis 0 0 0   XYZ
    dof rx ry rz
    limits (-20.0 45.0)
           (-30.0 30.0)
           (-30.0 30.0)
  end
  begin
     id 17 
     name lclavicle
     direction 0.929492 0.368193 -0.0218667  
     length 3.5955  
     axis 0 0 0   XYZ
    dof ry rz
    limits (-20.0 10.0)
           (0.0 20.0)
  end
  begin
     id 18 
     name lhumerus
     direction 1 -4.48972e-011 1.41911e-027   
     length 5.2795   
     axis 180 -30 -90   XYZ
    dof rx ry rz
    limits (-60.0 90.0)
           (-90.0 90.0)
           (-90.0 90.0)
  end
  begin
     id 19
     name lradius
     direction 1 -4.48963e-011 7.05772e-027   
     length 3.53504   
     axis 180 -30 -90   XYZ
    dof rx
    limits (-10.0 170.0)
  end
  begin
     id 20
     name lwrist
     direction 1 -4.48957e-011 9.54866e-027   
     length 1.76752   
     axis -7.69462e-015 90 90   XYZ
    dof ry
    limits (-180.0 0.0)
 end
  begin
     id 21 
     name lhand
     direction 1 -4.48979e-011 1.90973e-026   
     length 0.667948   
     axis -1.21857e-014 90 90   XYZ
    dof rx rz
    limits (-90.0 90.0)
           (-45.0 45.0)
  end
  begin
     id 22 
     name lfingers
     direction 1 -4.48987e-011 3.81946e-026   
     length 0.538517   
     axis -2.43714e-014 90 90   XYZ
    dof rx
    limits (0.0 90.0)
  end
  begin
     id 23
     name lthumb
     direction 0.707107 -6.34962e-011 0.707107   
     length 0.773206   
     axis -90 45 2.85299e-015   XYZ
    dof rx rz
    limits (-45.0 45.0)
           (-45.0 45.0)
  end
  begin
     id 24 
     name rclavicle
     direction -0.898763 0.414256 -0.143584   
     length 3.5176  
     axis 0 0 0   XYZ 
    dof ry rz
    limits (-10.0 20.0)
           (-20.0 0.0)
  end
  begin
     id 25 
     name rhumerus
     direction -1 -4.48971e-011 1.129e-027  
     length 5.25035   
     axis 180 30 90   XYZ
    dof rx ry rz
    limits (-90.0 60.0)
           (-90.0 90.0)
           (-90.0 90.0)
  end
  begin
     id 26 
     name rradius
     direction -1 -4.48955e-011 6.34664e-027   
     length 3.58884   
     axis 180 30 90   XYZ
    dof rx
    limits (-10.0 170.0)
  end
  begin
     id 27 
     name rwrist
     direction -1 -4.48966e-011 9.54866e-027   
     length 1.79442   
     axis -7.69462e-015 -90 -90   XYZ
    dof ry
    limits (-180.0 0.0)
  end
  begin
     id 28
     name rhand
     direction -1 -4.48973e-011 1.90973e-026   
     length 0.779235   
     axis -1.21857e-014 -90 -90   XYZ
    dof rx rz
    limits (-90.0 90.0)
           (-45.0 45.0)
  end
  begin
     id 29
     name rfingers
     direction -1 -4.48984e-011 3.81946e-026   
     length 0.62824   
     axis -2.43714e-014 -90 -90   XYZ
    dof rx
    limits (0.0 90.0)
  end
  begin
     id 30
     name rthumb
     direction -0.707107 -6.34968e-011 0.707107   
     length 0.90203   
     axis -90 -45 -2.85299e-015   XYZ
    dof rx rz
    limits (-45.0 45.0)
           (-45.0 45.0)
  end
:hierarchy
  begin
    root lhipjoint rhipjoint lowerback
    lhipjoint lfemur
    lfemur ltibia
    ltibia lfoot
    lfoot ltoes
    rhipjoint rfemur
    rfemur rtibia
    rtibia rfoot
    rfoot rtoes
    lowerback upperback
    upperback thorax
    thorax lowerneck lclavicle rclavicle
    lowerneck upperneck
    upperneck head
    lclavicle lhumerus
    lhumerus lradius
    lradius lwrist
    lwrist lhand lthumb
    lhand lfingers
    rclavicle rhumerus
    rhumerus rradius
    rradius rwrist
    rwrist rhand rthumb
    rhand rfingers
  end

#!OML:ASF I:\Random Stuff\random\construction\7_22_03\Session 2\subj1.ASF
:FULLY-SPECIFIED
:DEGREES
43
root -10.1008 17.8046 -2.07958 -14.5851 81.2082 -21.3096
lowerback 7.79744 0.903015 -5.53851
upperback 0.231412 0.713346 -0.247357
thorax -4.20323 0.467873 2.7752
lowerneck -20.1331 -0.797056 2.22683
upperneck 21.0151 -1.80457 0.374708
head 10.0047 -0.56366 -0.487927
rclavicle -1.25234e-014 -7.95139e-016
rhumerus -38.9121 3.94423 -75.7181
rradius 39.0998
rwrist -1.96686
rhand -16.3053 17.3865
rfingers 7.12502
rthumb 9.90563 -12.3605
lclavicle -1.25234e-014 -7.95139e-016
lhumerus -34.3222 2.26631 79.425
lradius 25.522
lwrist 19.5714
lhand -19.9956 58.2526
lfingers 7.12502
lthumb 6.34406 88.1376
rfemur -24.5561 -7.11927 23.1714
rtibia 22.0078
rfoot -10.0669 -16.5933
rtoes -6.64364
lfemur -13.7252 -5.5632 -19.1822
ltibia 20.7415
lfoot -15.5105 21.7282
ltoes -11.0551
44
root -10.0969 17.807 -2.07296 -14.8122 81.1132 -21.4966
lowerback 7.61192 0.835948 -5.33111
upperback 0.107195 0.651072 -0.167583
thorax -4.22151 0.435405 2.74979
lowerneck -20.2285 -0.900468 2.08906
upperneck 21.1196 -1.93471 0.47621
head 10.061 -0.620294 -0.449088
rclavicle 2.38542e-015 -1.43125e-014
rhumerus -38.857 4.85976 -76.555
rradius 40.5979
rwrist -2.78181
rhand -15.8372 17.7365
rfingers 7.12502
rthumb 10.3572 -11.9884
lclavicle 2.38542e-015 -1.43125e-014
lhumerus -34.1798 1.82014 79.8364
lradius 26.5728
lwrist 19.9148
lhand -20.0192 58.2596
lfingers 7.12502
lthumb 6.32125 88.1453
rfemur -23.9657 -6.97755 22.7996
rtibia 21.961
rfoot -10.0228 -17.0842
rtoes -7.04454
lfemur -13.6164 -5.85913 -19.0775
ltibia 20.7067
lfoot -15.604 22.0758
ltoes -10.9044
45
root -10.0884 17.8078 -2.06177 -15.6558 81.0936 -22.3055
lowerback 7.40343 0.741471 -5.0424
upperback -0.056415 0.559954 -0.0525391
thorax -4.26504 0.388271 2.71831
lowerneck -20.3442 -0.971935 1.87625
upperneck 21.3881 -2.03678 0.739143
head 10.1839 -0.646111 -0.337389
rclavicle 1.09332e-014 2.06736e-014
rhumerus -38.95 5.79492 -77.4159
rradius 42.1348
rwrist -3.22928
rhand -15.3698 18.2834
rfingers 7.12502
rthumb 10.8081 -11.4185
lclavicle 1.09332e-014 2.06736e-014
lhumerus -33.9901 1.67789 80.161
lradius 27.5963
lwrist 20.5041
lhand -20.1757 58.5548
lfingers 7.12502
lthumb 6.17022 88.4449
rfemur -23.1838 -6.75627 22.4639
rtibia 21.748
rfoot -9.95507 -17.5841
rtoes -6.8569
lfemur -13.5225 -6.3083 -18.8789
ltibia 20.7087
lfoot -15.7666 22.4527
ltoes -10.4435
46
root -10.0752 17.8067 -2.04378 -16.5644 81.1248 -23.1402
lowerback 7.18789 0.677354 -4.77413
upperback -0.22843 0.507412 0.0679335
thorax -4.31711 0.36088 2.69931
lowerneck -20.426 -1.03607 1.7642
upperneck 21.6162 -2.11518 0.824948
head 10.2833 -0.675424 -0.301059
rclavicle 3.97569e-016 1.74931e-014
rhumerus -39.1512 6.7149 -78.2616
rradius 43.6864
rwrist -3.37491
rhand -14.8158 18.4124
rfingers 7.12502
rthumb 11.3424 -11.2609
lclavicle 3.97569e-016 1.74931e-014
lhumerus -33.8549 1.35937 80.5674
lradius 28.7716
lwrist 21.715
lhand -20.4701 58.6753
lfingers 7.12502
lthumb 5.88593 88.5736
rfemur -22.209 -6.46265 22.1028
rtibia 21.4024
rfoot -9.85905 -17.9894
rtoes -5.99264
lfemur -13.397 -6.60492 -18.6972
ltibia 20.7508
lfoot -15.9287 22.6393
ltoes -10.1775
47
root -10.0567 17.8032 -2.02188 -16.8054 81.2067 -23.2893
lowerback 6.95703 0.645584 -4.61353
upperback -0.397981 0.48912 0.175717
thorax -4.36181 0.352491 2.7238
lowerneck -20.5301 -1.07977 1.6772
upperneck 21.8358 -2.14622 0.802191
head 10.3825 -0.694744 -0.300696
rclavicle 1.09332e-015 2.38542e-015
rhumerus -39.3447 7.65546 -79.0273
rradius 45.125
rwrist -3.28977
rhand -14.1453 18.4052
rfingers 7.12502
rthumb 11.989 -11.2314
lclavicle 1.09332e-015 2.38542e-015
lhumerus -33.6344 1.18907 80.9562
lradius 29.8836
lwrist 22.7462
lhand -20.306 58.3208
lfingers 7.12502
lthumb 6.04438 88.2145
rfemur -21.108 -6.03824 21.6013
rtibia 20.9958
rfoot -9.49941 -18.2775
rtoes -5.31545
lfemur -13.2319 -6.71762 -18.656
ltibia 20.7677
lfoot -16.0138 22.6614
ltoes -10.3451
48
root -10.0348 17.7982 -1.99713 -16.4092 81.3536 -22.8674
lowerback 6.6457 0.629768 -4.5208
upperback -0.594907 0.488236 0.245304
thorax -4.39131 0.354025 2.74503
lowerneck -20.7636 -1.21165 1.35516
upperneck 22.2334 -2.28073 0.983465
head 10.5768 -0.751627 -0.205309
rclavicle -3.57812e-015 -8.74653e-015
rhumerus -39.5394 8.51166 -79.7335
rradius 46.4372
rwrist -3.02702
rhand -13.4244 18.7928
rfingers 7.12502
rthumb 12.684 -10.802
lclavicle -3.57812e-015 -8.74653e-015
lhumerus -33.303 1.10497 81.3088
lradius 30.9292
lwrist 23.6314
lhand -19.9258 58.0581
lfingers 7.12502
lthumb 6.41148 87.9411
rfemur -20.0035 -5.49949 20.9963
rtibia 20.5434
rfoot -8.64334 -18.3506
rtoes -4.58049
lfemur -13.1148 -6.82405 -18.7133
ltibia 20.731
lfoot -16.0349 22.6661
ltoes -10.7068
49
root -10.0117 17.7925 -1.96454 -15.5761 81.5861 -22.0246
lowerback 6.30508 0.63952 -4.53163
upperback -0.811589 0.513026 0.281232
thorax -4.42765 0.371083 2.78693
lowerneck -20.9642 -1.44083 1.08694
upperneck 22.6596 -2.52734 1.01244
head 10.7743 -0.873799 -0.190305
rclavicle 1.5704e-014 1.59028e-015
rhumerus -39.7741 9.18864 -80.4035
rradius 47.6018
rwrist -2.58792
rhand -12.6864 19.3639
rfingers 7.12502
rthumb 13.3955 -10.1854
lclavicle 1.5704e-014 1.59028e-015
lhumerus -32.9659 0.688263 81.7803
lradius 32.1205
lwrist 25.0505
lhand -19.8075 58.029
lfingers 7.12502
lthumb 6.52564 87.9085
rfemur -18.8094 -4.67035 20.2979
rtibia 19.9721
rfoot -7.40167 -18.4729
rtoes -2.92093
lfemur -13.0188 -6.96449 -18.8351
ltibia 20.6888
lfoot -16.0445 22.6467
ltoes -11.1672
50
root -9.98581 17.7846 -1.92351 -14.3934 81.8448 -20.775
lowerback 6.01579 0.629016 -4.63403
upperback -1.01772 0.501839 0.308806
thorax -4.47991 0.373095 2.87516
lowerneck -21.0099 -1.55529 0.981634
upperneck 22.8953 -2.61274 0.858342
head 10.8683 -0.9365 -0.242614
rclavicle 1.39149e-015 3.97569e-015
rhumerus -39.9248 9.86578 -81.0842
rradius 48.5239
rwrist -1.90492
rhand -12.1874 19.8978
rfingers 7.12502
rthumb 13.8764 -9.61931
lclavicle 1.39149e-015 3.97569e-015
lhumerus -32.7239 0.266027 82.2414
lradius 33.482
lwrist 26.5963
lhand -19.7798 58.1642
lfingers 7.12502
lthumb 6.55242 88.0428
rfemur -17.4133 -3.38469 19.5453
rtibia 19.206
rfoot -5.96607 -19.0107
rtoes -2.68733
lfemur -12.8807 -6.92838 -19.0071
ltibia 20.6913
lfoot -16.0596 22.4703
ltoes -11.7158
51
root -9.95701 17.7702 -1.87845 -12.945 82.0807 -19.2468
lowerback 5.67221 0.578964 -4.75464
upperback -1.18262 0.44139 0.336597
thorax -4.45411 0.349027 2.97891
lowerneck -21.1391 -1.57276 0.736631
upperneck 23.1486 -2.57447 0.919924
head 10.9912 -0.927341 -0.175722
rclavicle 2.63887e-014 -1.43125e-014
rhumerus -39.858 10.6251 -81.7751
rradius 49.1528
rwrist -1.10052
rhand -12.3727 20.7815
rfingers 7.12502
rthumb 13.6979 -8.74766
lclavicle 2.63887e-014 -1.43125e-014
lhumerus -32.4813 0.123918 82.5747
lradius 34.8481
lwrist 27.7331
lhand -19.6301 58.3001
lfingers 7.12502
lthumb 6.69695 88.1742
rfemur -15.8969 -1.82544 18.8378
rtibia 18.1863
rfoot -5.10189 -19.8043
rtoes -6.75056
lfemur -12.7246 -6.68444 -19.1987
ltibia 20.6997
lfoot -16.0589 22.1148
ltoes -12.2634
52
root -9.92584 17.7511 -1.83237 -11.0517 82.3245 -17.2862
lowerback 5.24336 0.553847 -4.86326
upperback -1.3322 0.419489 0.321556
thorax -4.36653 0.341702 3.02763
lowerneck -21.2711 -1.63117 0.618009
upperneck 23.4491 -2.58971 0.814784
head 11.1282 -0.952069 -0.198722
rclavicle -2.88735e-014 7.95139e-016
rhumerus -39.7324 11.2332 -82.4197
rradius 49.5976
rwrist -0.369992
rhand -13.0422 21.2541
rfingers 7.12502
rthumb 13.0525 -8.31754
lclavicle -2.88735e-014 7.95139e-016
lhumerus -32.189 -0.0149226 82.8539
lradius 36.0978
lwrist 28.5005
lhand -19.4244 58.1775
lfingers 7.12502
lthumb 6.89545 88.0452
rfemur -14.3937 -0.320022 18.1917
rtibia 17.0484
rfoot -5.21922 -20.4583
rtoes -15.2987
lfemur -12.5394 -6.51212 -19.4344
ltibia 20.6543
lfoot -16.0538 21.734
ltoes -12.3353
53
root -9.89127 17.7413 -1.78334 -9.547 82.5834 -15.6281
lowerback 4.93567 0.576168 -4.847
upperback -1.4975 0.461543 0.264742
thorax -4.36769 0.364794 2.95633
lowerneck -21.1867 -1.72302 0.646068
upperneck 23.6498 -2.65768 0.572723
head 11.1824 -1.00738 -0.302099
rclavicle 1.88845e-015 -1.19271e-015
rhumerus -39.7292 11.7184 -83.0624
rradius 49.9153
rwrist 0.103998
rhand -13.2378 21.0486
rfingers 7.12502
rthumb 12.864 -8.53495
lclavicle 1.88845e-015 -1.19271e-015
lhumerus -31.9861 -0.368311 83.1316
lradius 37.3178
lwrist 29.056
lhand -19.3511 57.9552
lfingers 7.12502
lthumb 6.96621 87.8205
rfemur -13.5725 0.139345 18.0397
rtibia 15.9203
rfoot -4.25085 -20.7953
rtoes -15.7359
lfemur -12.2102 -6.56986 -19.6021
ltibia 20.5622
lfoot -16.0109 21.4963
ltoes -12.1532
54
root -9.85723 17.7435 -1.7308 -9.56043 82.7828 -15.3522
lowerback 4.82112 0.628377 -4.62114
upperback -1.61051 0.548668 0.235831
thorax -4.42486 0.404968 2.79176
lowerneck -21.0882 -1.82055 0.431532
upperneck 23.8142 -2.74587 0.674684
head 11.2303 -1.04959 -0.242429
rclavicle 9.88954e-015 -9.54166e-015
rhumerus -39.6481 12.0943 -83.6661
rradius 49.9878
rwrist 0.365178
rhand -12.7585 21.3524
rfingers 7.12502
rthumb 13.326 -8.20145
lclavicle 9.88954e-015 -9.54166e-015
lhumerus -31.7533 -0.698057 83.3729
lradius 38.4502
lwrist 29.257
lhand -19.2759 57.8207
lfingers 7.12502
lthumb 7.03882 87.6836
rfemur -12.685 1.09659 18.1336
rtibia 14.9053
rfoot -3.59444 -21.9204
rtoes -13.0372
lfemur -11.6957 -7.1161 -19.5418
ltibia 20.4592
lfoot -16.0946 21.7498
ltoes -12.0864
55
root -9.82666 17.7461 -1.68126 -10.7156 82.8759 -16.2214
lowerback 4.6753 0.668538 -4.22721
upperback -1.62009 0.635986 0.27032
thorax -4.35378 0.43645 2.5995
lowerneck -21.2156 -1.88872 0.212943
upperneck 23.9785 -2.77357 0.691572
head 11.3203 -1.07665 -0.206203
rclavicle 1.41137e-014 -3.57812e-015
rhumerus -39.3378 12.3511 -84.1458
rradius 49.8395
rwrist 0.59698
rhand -12.3119 21.714
rfingers 7.12502
rthumb 13.7564 -7.81128
lclavicle 1.41137e-014 -3.57812e-015
lhumerus -31.3145 -0.635236 83.5592
lradius 39.362
lwrist 28.9479
lhand -19.098 57.6695
lfingers 7.12502
lthumb 7.21051 87.5266
rfemur -11.759 2.53668 18.3863
rtibia 13.999
rfoot -3.26632 -23.3771
rtoes -9.36003
lfemur -11.1733 -8.10352 -19.325
ltibia 20.3916
lfoot -16.3319 22.5327
ltoes -12.1015
56
root -9.79872 17.7479 -1.63522 -12.7232 82.8025 -18.0623
lowerback 4.40299 0.723749 -3.64651
upperback -1.6141 0.760825 0.350349
thorax -4.1941 0.480616 2.34801
lowerneck -21.4694 -1.91167 0.16509
upperneck 24.1499 -2.72403 0.446298
head 11.4301 -1.08813 -0.284074
rclavicle -4.87022e-015 -7.55382e-015
rhumerus -38.9421 12.6232 -84.5368
rradius 49.5532
rwrist 0.672052
rhand -12.2201 21.6763
rfingers 7.12502
rthumb 13.8449 -7.84288
lclavicle -4.87022e-015 -7.55382e-015
lhumerus -30.8745 -0.384446 83.7393
lradius 40.243
lwrist 28.5353
lhand -19.0365 57.5274
lfingers 7.12502
lthumb 7.26994 87.3825
rfemur -11.0229 3.90594 18.7966
rtibia 13.2551
rfoot -2.96755 -24.5027
rtoes -6.95743
lfemur -10.8221 -9.07549 -18.9617
ltibia 20.4548
lfoot -16.5519 23.4802
ltoes -12.4402
57
root -9.77273 17.7504 -1.59012 -15.3944 82.5757 -20.6627
lowerback 4.09861 0.797727 -2.92934
upperback -1.65444 0.916518 0.456532
thorax -4.06247 0.539092 2.04556
lowerneck -21.6173 -1.89151 0.0665458
upperneck 24.2743 -2.65741 0.428874
head 11.5071 -1.0673 -0.265641
rclavicle 1.02126e-014 -1.98785e-015
rhumerus -38.4955 12.8878 -84.8596
rradius 49.0833
rwrist 0.545939
rhand -12.1573 21.6064
rfingers 7.12502
rthumb 13.9054 -7.90863
lclavicle 1.02126e-014 -1.98785e-015
lhumerus -30.5991 -0.0977704 83.8977
lradius 41.2088
lwrist 28.235
lhand -19.1681 57.6222
lfingers 7.12502
lthumb 7.14289 87.4816
rfemur -10.4351 5.22692 19.3531
rtibia 12.5335
rfoot -2.50139 -25.6087
rtoes -6.26764
lfemur -10.635 -10.2541 -18.4329
ltibia 20.6908
lfoot -17.0183 24.6713
ltoes -12.234
